<svg width="24" height="24" viewBox="0 0 24 24" fill="none" xmlns="http://www.w3.org/2000/svg">
<path d="M13.3256 12.001L23.7252 1.60144C24.0913 1.2353 24.0913 0.641675 23.7252 0.275581C23.359 -0.0905116 22.7654 -0.0905584 22.3993 0.275581L11.9997 10.6752L1.60022 0.275581C1.23408 -0.0905584 0.640454 -0.0905584 0.274361 0.275581C-0.0917323 0.641721 -0.0917791 1.23535 0.274361 1.60144L10.6739 12.001L0.274361 22.4005C-0.0917791 22.7667 -0.0917791 23.3603 0.274361 23.7264C0.457407 23.9094 0.69736 24.0009 0.937313 24.0009C1.17727 24.0009 1.41717 23.9094 1.60026 23.7264L11.9997 13.3269L22.3993 23.7264C22.5823 23.9094 22.8223 24.0009 23.0622 24.0009C23.3022 24.0009 23.5421 23.9094 23.7252 23.7264C24.0913 23.3603 24.0913 22.7666 23.7252 22.4005L13.3256 12.001Z" fill="white"/>
</svg>
